<?xml version="1.0" encoding="UTF-8" standalone="no"?>
<!-- Created with Inkscape (http://www.inkscape.org/) -->

<svg
   xmlns:dc="http://purl.org/dc/elements/1.1/"
   xmlns:cc="http://creativecommons.org/ns#"
   xmlns:rdf="http://www.w3.org/1999/02/22-rdf-syntax-ns#"
   xmlns:svg="http://www.w3.org/2000/svg"
   xmlns="http://www.w3.org/2000/svg"
   version="1.0"
   width="688.125"
   height="688.125"
   id="svg2623">
  <metadata
     id="metadata3078">
    <rdf:RDF>
      <cc:Work
         rdf:about="">
        <dc:format>image/svg+xml</dc:format>
        <dc:type
           rdf:resource="http://purl.org/dc/dcmitype/StillImage" />
        <dc:title></dc:title>
      </cc:Work>
    </rdf:RDF>
  </metadata>
  <defs
     id="defs2626">
    <filter
       x="0"
       y="0"
       width="1"
       height="1"
       color-interpolation-filters="sRGB"
       id="filter3090">
      <feColorMatrix
         result="fbSourceGraphic"
         values="1"
         type="saturate"
         id="feColorMatrix3092" />
      <feColorMatrix
         values="-1 0 0 0 1 0 -1 0 0 1 0 0 -1 0 1 0 0 0 1 0 "
         in="fbSourceGraphic"
         id="feColorMatrix3094"
         result="fbSourceGraphic" />
      <feColorMatrix
         result="fbSourceGraphicAlpha"
         in="fbSourceGraphic"
         values="0 0 0 -1 0 0 0 0 -1 0 0 0 0 -1 0 0 0 0 1 0"
         id="feColorMatrix3852" />
      <feFlood
         id="feFlood3854"
         result="result1"
         flood-opacity="0"
         flood-color="rgb(128,128,128)"
         in="fbSourceGraphic" />
      <feBlend
         in2="fbSourceGraphic"
         mode="normal"
         result="result2"
         id="feBlend3856" />
      <feComposite
         in2="fbSourceGraphic"
         operator="arithmetic"
         k1="0"
         k2="1"
         k3="0"
         k4="0"
         result="result3"
         id="feComposite3858" />
      <feComposite
         in2="fbSourceGraphic"
         operator="in"
         result="fbSourceGraphic"
         id="feComposite3860" />
      <feColorMatrix
         result="fbSourceGraphicAlpha"
         in="fbSourceGraphic"
         values="0 0 0 -1 0 0 0 0 -1 0 0 0 0 -1 0 0 0 0 1 0"
         id="feColorMatrix3862" />
      <feColorMatrix
         id="feColorMatrix3864"
         type="hueRotate"
         values="180"
         result="fbSourceGraphic"
         in="fbSourceGraphic" />
      <feColorMatrix
         result="fbSourceGraphicAlpha"
         in="fbSourceGraphic"
         values="0 0 0 -1 0 0 0 0 -1 0 0 0 0 -1 0 0 0 0 1 0"
         id="feColorMatrix3866" />
      <feColorMatrix
         id="feColorMatrix3868"
         type="hueRotate"
         values="180"
         result="fbSourceGraphic"
         in="fbSourceGraphic" />
      <feColorMatrix
         result="fbSourceGraphicAlpha"
         in="fbSourceGraphic"
         values="0 0 0 -1 0 0 0 0 -1 0 0 0 0 -1 0 0 0 0 1 0"
         id="feColorMatrix3870" />
      <feFlood
         id="feFlood3872"
         result="result1"
         flood-opacity="0"
         flood-color="rgb(128,128,128)"
         in="fbSourceGraphic" />
      <feBlend
         in2="fbSourceGraphic"
         mode="normal"
         result="result2"
         id="feBlend3874" />
      <feComposite
         in2="fbSourceGraphic"
         operator="arithmetic"
         k1="0"
         k2="1"
         k3="0"
         k4="0"
         result="result4"
         id="feComposite3876" />
      <feComposite
         in2="fbSourceGraphic"
         operator="in"
         result="fbSourceGraphic"
         id="feComposite3878" />
      <feColorMatrix
         result="fbSourceGraphicAlpha"
         in="fbSourceGraphic"
         values="0 0 0 -1 0 0 0 0 -1 0 0 0 0 -1 0 0 0 0 1 0"
         id="feColorMatrix3880" />
      <feColorMatrix
         id="feColorMatrix3882"
         type="saturate"
         values="1"
         result="fbSourceGraphic"
         in="fbSourceGraphic" />
      <feColorMatrix
         id="feColorMatrix3884"
         in="fbSourceGraphic"
         values="-1 0 0 0 1 0 -1 0 0 1 0 0 -1 0 1 0 0 0 1 0 "
         result="fbSourceGraphic" />
      <feColorMatrix
         result="fbSourceGraphicAlpha"
         in="fbSourceGraphic"
         values="0 0 0 -1 0 0 0 0 -1 0 0 0 0 -1 0 0 0 0 1 0"
         id="feColorMatrix3886" />
      <feColorMatrix
         id="feColorMatrix3888"
         type="saturate"
         values="1"
         result="fbSourceGraphic"
         in="fbSourceGraphic" />
      <feColorMatrix
         id="feColorMatrix3890"
         in="fbSourceGraphic"
         values="-1 0 0 0 1 0 -1 0 0 1 0 0 -1 0 1 0 0 0 1 0 "
         result="fbSourceGraphic" />
      <feColorMatrix
         result="fbSourceGraphicAlpha"
         in="fbSourceGraphic"
         values="0 0 0 -1 0 0 0 0 -1 0 0 0 0 -1 0 0 0 0 1 0"
         id="feColorMatrix3898" />
      <feColorMatrix
         id="feColorMatrix3900"
         type="saturate"
         values="1"
         result="fbSourceGraphic"
         in="fbSourceGraphic" />
      <feColorMatrix
         id="feColorMatrix3902"
         in="fbSourceGraphic"
         values="-1 0 0 0 1 0 -1 0 0 1 0 0 -1 0 1 0 0 0 1 0 "
         result="fbSourceGraphic" />
      <feColorMatrix
         result="fbSourceGraphicAlpha"
         in="fbSourceGraphic"
         values="0 0 0 -1 0 0 0 0 -1 0 0 0 0 -1 0 0 0 0 1 0"
         id="feColorMatrix3910" />
      <feColorMatrix
         id="feColorMatrix3912"
         type="saturate"
         values="1"
         result="fbSourceGraphic"
         in="fbSourceGraphic" />
      <feColorMatrix
         id="feColorMatrix3914"
         in="fbSourceGraphic"
         values="-1 0 0 0 1 0 -1 0 0 1 0 0 -1 0 1 0 0 0 1 0 "
         result="fbSourceGraphic" />
      <feColorMatrix
         result="fbSourceGraphicAlpha"
         in="fbSourceGraphic"
         values="0 0 0 -1 0 0 0 0 -1 0 0 0 0 -1 0 0 0 0 1 0"
         id="feColorMatrix3922" />
      <feColorMatrix
         id="feColorMatrix3924"
         type="saturate"
         values="1"
         result="fbSourceGraphic"
         in="fbSourceGraphic" />
      <feColorMatrix
         id="feColorMatrix3926"
         in="fbSourceGraphic"
         values="-1 0 0 0 1 0 -1 0 0 1 0 0 -1 0 1 0 0 0 1 0 "
         result="fbSourceGraphic" />
      <feColorMatrix
         result="fbSourceGraphicAlpha"
         in="fbSourceGraphic"
         values="0 0 0 -1 0 0 0 0 -1 0 0 0 0 -1 0 0 0 0 1 0"
         id="feColorMatrix3928" />
      <feColorMatrix
         id="feColorMatrix3930"
         type="saturate"
         values="1"
         result="fbSourceGraphic"
         in="fbSourceGraphic" />
      <feColorMatrix
         id="feColorMatrix3932"
         in="fbSourceGraphic"
         values="-1 0 0 0 1 0 -1 0 0 1 0 0 -1 0 1 0 0 0 1 0 "
         result="fbSourceGraphic" />
      <feColorMatrix
         result="fbSourceGraphicAlpha"
         in="fbSourceGraphic"
         values="0 0 0 -1 0 0 0 0 -1 0 0 0 0 -1 0 0 0 0 1 0"
         id="feColorMatrix3934" />
      <feColorMatrix
         id="feColorMatrix3936"
         type="saturate"
         values="1"
         result="fbSourceGraphic"
         in="fbSourceGraphic" />
      <feColorMatrix
         id="feColorMatrix3938"
         in="fbSourceGraphic"
         values="-1 0 0 0 1 0 -1 0 0 1 0 0 -1 0 1 0 0 0 1 0 " />
    </filter>
    <filter
       x="0"
       y="0"
       width="1"
       height="1"
       color-interpolation-filters="sRGB"
       id="filter3096">
      <feColorMatrix
         result="fbSourceGraphic"
         values="1"
         type="saturate"
         id="feColorMatrix3098" />
      <feColorMatrix
         values="-1 0 0 0 1 0 -1 0 0 1 0 0 -1 0 1 0 0 0 1 0 "
         in="fbSourceGraphic"
         id="feColorMatrix3100"
         result="fbSourceGraphic" />
      <feColorMatrix
         result="fbSourceGraphicAlpha"
         in="fbSourceGraphic"
         values="0 0 0 -1 0 0 0 0 -1 0 0 0 0 -1 0 0 0 0 1 0"
         id="feColorMatrix3892" />
      <feColorMatrix
         id="feColorMatrix3894"
         type="saturate"
         values="1"
         result="fbSourceGraphic"
         in="fbSourceGraphic" />
      <feColorMatrix
         id="feColorMatrix3896"
         in="fbSourceGraphic"
         values="-1 0 0 0 1 0 -1 0 0 1 0 0 -1 0 1 0 0 0 1 0 "
         result="fbSourceGraphic" />
      <feColorMatrix
         result="fbSourceGraphicAlpha"
         in="fbSourceGraphic"
         values="0 0 0 -1 0 0 0 0 -1 0 0 0 0 -1 0 0 0 0 1 0"
         id="feColorMatrix3904" />
      <feColorMatrix
         id="feColorMatrix3906"
         type="saturate"
         values="1"
         result="fbSourceGraphic"
         in="fbSourceGraphic" />
      <feColorMatrix
         id="feColorMatrix3908"
         in="fbSourceGraphic"
         values="-1 0 0 0 1 0 -1 0 0 1 0 0 -1 0 1 0 0 0 1 0 "
         result="fbSourceGraphic" />
      <feColorMatrix
         result="fbSourceGraphicAlpha"
         in="fbSourceGraphic"
         values="0 0 0 -1 0 0 0 0 -1 0 0 0 0 -1 0 0 0 0 1 0"
         id="feColorMatrix3916" />
      <feColorMatrix
         id="feColorMatrix3918"
         type="saturate"
         values="1"
         result="fbSourceGraphic"
         in="fbSourceGraphic" />
      <feColorMatrix
         id="feColorMatrix3920"
         in="fbSourceGraphic"
         values="-1 0 0 0 1 0 -1 0 0 1 0 0 -1 0 1 0 0 0 1 0 " />
    </filter>
  </defs>
  <rect
     width="688"
     height="688"
     x="0.0625"
     y="0.0625"
     id="rect2636"
     style="fill:#000000;fill-opacity:0;fill-rule:nonzero;stroke:#000000;stroke-width:0;stroke-linecap:round;stroke-linejoin:miter;stroke-miterlimit:4;stroke-opacity:1;stroke-dasharray:none" />
  <g
     transform="matrix(2.3991696,0,0,2.3991696,-90.616742,-59.116977)"
     id="g3940">
    <path
       d="m 180.5477,140.34122 c -1.58167,-0.17708 -3.13672,-1.08306 -4.09722,-2.38707 -0.51807,-0.70334 -0.933,-1.68747 -1.06814,-2.53345 -0.0268,-0.16783 -0.0569,-0.31329 -0.0668,-0.32323 -0.01,-0.01 -0.20695,0.0166 -0.43777,0.059 -0.48008,0.0882 -1.41587,0.10164 -1.85462,0.0266 -1.40267,-0.23994 -2.50207,-0.83446 -3.51768,-1.90227 -1.07033,-1.12533 -1.57332,-2.16862 -1.72814,-3.58445 -0.14409,-1.31771 0.24728,-2.76947 1.04547,-3.87805 0.13984,-0.19423 0.30956,-0.406 0.37716,-0.47063 0.0676,-0.0646 2.0521,-1.43383 4.41002,-3.04269 l 4.28712,-2.92521 0.24392,0.2488 c 0.66272,0.67598 1.46033,1.06973 2.51043,1.23931 l 0.17288,0.0279 0,4.51295 0,1.39153 0.1053,0.12243 c 0.1387,0.16124 0.40505,0.16951 0.56676,0.0176 l 0.1116,-0.10485 0,-1.40911 0,-4.53054 0.17287,-0.0279 c 1.05264,-0.16999 1.85084,-0.56475 2.5128,-1.24276 l 0.24629,-0.25226 4.2617,2.90677 c 2.34394,1.59872 4.32778,2.97005 4.40855,3.04739 0.23263,0.22277 0.64033,0.81542 0.86834,1.26222 0.67965,1.33182 0.80435,2.94448 0.3347,4.3287 -0.30826,0.90856 -0.7285,1.5709 -1.5259,2.405 -0.98254,1.02776 -2.09665,1.62393 -3.47515,1.85958 -0.43228,0.0739 -1.38969,0.06 -1.8636,-0.0271 -0.22755,-0.0418 -0.42186,-0.0679 -0.43181,-0.0579 -0.01,0.01 -0.04,0.1554 -0.0669,0.32323 -0.18549,1.16118 -0.80904,2.37319 -1.65803,3.22278 -0.83392,0.83449 -2.06388,1.4705 -3.19994,1.65463 -0.44,0.0713 -1.21154,0.0916 -1.64422,0.0431 z m -18.69276,-13.53343 c -1.79671,-0.21672 -3.19284,-0.75805 -4.5637,-1.76949 -1.14178,-0.84242 -2.12494,-2.02773 -2.74416,-3.30838 l -0.25222,-0.52161 -0.16134,0.0265 c -0.0887,0.0146 -0.44139,0.0389 -0.78367,0.0541 -0.93463,0.0414 -1.70921,-0.11276 -2.55865,-0.50933 -1.5607,-0.72862 -2.70633,-2.09652 -3.13461,-3.74274 l -0.10938,-0.42046 0.0852,-0.34016 c 0.45778,-1.82776 1.76447,-3.31225 3.50836,-3.98574 0.64582,-0.24942 1.20504,-0.3535 1.9325,-0.35966 0.34228,-0.003 0.75716,0.012 0.92196,0.0331 l 0.29964,0.0383 0.25333,-0.52239 c 0.89817,-1.85214 2.37576,-3.31325 4.25803,-4.21054 1.30534,-0.62225 2.45092,-0.87514 3.94763,-0.87146 1.46599,0.004 2.73522,0.30271 4.0244,0.94834 0.29364,0.14705 2.2303,1.43819 5.53177,3.68793 2.79397,1.90393 5.08817,3.46896 5.09821,3.47785 0.0101,0.009 -0.0347,0.13588 -0.0995,0.2822 -0.17591,0.39742 -0.26509,0.68914 -0.32414,1.06027 l -0.0531,0.33383 -4.52667,0.0122 -4.52666,0.0122 -0.11895,0.11175 c -0.20007,0.18798 -0.15153,0.50897 0.097,0.64134 0.0746,0.0397 1.26483,0.0536 4.58788,0.0536 l 4.4872,0 0.0532,0.33449 c 0.0591,0.37175 0.14827,0.66334 0.32425,1.06093 0.0648,0.14631 0.10953,0.2733 0.0995,0.28219 -0.0101,0.009 -2.30424,1.57393 -5.09821,3.47785 -3.30147,2.24975 -5.23813,3.54088 -5.53177,3.68793 -0.91095,0.45622 -1.94904,0.77533 -2.94828,0.90631 -0.46949,0.0615 -1.60165,0.0837 -1.97503,0.0387 z m 36.69384,-0.0418 c -1.20615,-0.1642 -2.82791,-0.74858 -3.5724,-1.28727 -0.11409,-0.0826 -2.3752,-1.6271 -5.02469,-3.43231 -2.64948,-1.80522 -4.84495,-3.30911 -4.87882,-3.34198 -0.0513,-0.0498 -0.0466,-0.0897 0.0282,-0.23856 0.14587,-0.29036 0.2887,-0.74781 0.34607,-1.10836 l 0.0536,-0.33681 4.5575,-0.0122 4.5575,-0.0122 0.0881,-0.10882 c 0.0948,-0.11707 0.11642,-0.37448 0.043,-0.51168 -0.0248,-0.0464 -0.11089,-0.10724 -0.19126,-0.13526 -0.10281,-0.0358 -1.46718,-0.051 -4.6004,-0.051 l -4.45423,0 -0.0537,-0.33747 c -0.0575,-0.36113 -0.20022,-0.81849 -0.34617,-1.10901 -0.0748,-0.14889 -0.0795,-0.18879 -0.0283,-0.23856 0.0339,-0.0329 2.22935,-1.53677 4.87883,-3.34198 2.64948,-1.80522 4.91059,-3.34976 5.02468,-3.43231 0.28228,-0.20425 1.03359,-0.57454 1.57966,-0.77856 0.89832,-0.33563 2.2294,-0.581 3.15174,-0.581 1.33102,0 2.78486,0.34003 4.00418,0.93651 1.83559,0.89796 3.28894,2.3515 4.17208,4.17264 l 0.25334,0.52239 0.29962,-0.0383 c 0.50228,-0.0643 1.46044,-0.0405 1.89003,0.0471 1.20357,0.24518 2.20023,0.79274 3.038,1.66907 0.71703,0.75002 1.18408,1.59512 1.4348,2.59618 l 0.0852,0.34015 -0.10939,0.42047 c -0.56874,2.18619 -2.38153,3.83311 -4.62607,4.20278 -0.46189,0.0761 -1.36902,0.0736 -1.85085,-0.005 l -0.16133,-0.0263 -0.25223,0.52162 c -1.51191,3.12685 -4.71754,5.12589 -8.18372,5.10338 -0.38031,-0.002 -0.899,-0.0327 -1.15265,-0.0673 z m -18.07023,-6.77179 c -1.22532,-0.26725 -2.26015,-1.25441 -2.61108,-2.49078 -0.14709,-0.51826 -0.14709,-1.27958 0,-1.79783 0.16992,-0.59861 0.43445,-1.04904 0.8824,-1.50249 0.68017,-0.68851 1.36843,-1.00301 2.28662,-1.04487 0.66091,-0.0301 1.08353,0.0584 1.70086,0.35637 1.3207,0.63744 2.12137,2.09927 1.91665,3.49936 -0.26098,1.78481 -1.71366,3.05924 -3.47003,3.04423 -0.23586,-0.002 -0.5533,-0.0308 -0.70542,-0.064 z m -6.89601,-9.09891 c -4.08759,-2.77984 -4.32763,-2.95067 -4.56371,-3.24781 -1.58114,-1.99011 -1.69605,-4.66169 -0.29125,-6.77187 0.38344,-0.57597 1.35866,-1.57665 1.84184,-1.889918 0.7366,-0.477575 1.53431,-0.798292 2.32811,-0.936018 0.6574,-0.114062 1.61114,-0.09398 2.28424,0.04808 l 0.14279,0.03012 0.0568,-0.352215 c 0.12738,-0.789604 0.50481,-1.720436 0.97041,-2.393204 0.89453,-1.292581 2.37711,-2.226469 3.93884,-2.481109 0.42555,-0.06939 1.43712,-0.06999 1.85098,-9.14e-4 0.82437,0.13721 1.76245,0.514773 2.45085,0.986438 0.45889,0.314401 1.16452,1.020254 1.47948,1.479923 0.48216,0.7037 0.85241,1.612132 0.97805,2.399656 l 0.0577,0.361617 0.1428,-0.03012 c 0.6731,-0.142073 1.62684,-0.16215 2.28424,-0.04809 1.10791,0.192228 2.18145,0.720478 2.98269,1.467679 1.43452,1.337765 2.09991,2.670675 2.16706,4.341035 0.0579,1.44128 -0.43921,2.83282 -1.42234,3.98127 -0.0681,0.0796 -2.05845,1.46142 -4.42292,3.07073 l -4.29903,2.92602 -0.24643,-0.25239 c -0.66209,-0.67815 -1.4602,-1.07289 -2.51292,-1.2429 l -0.17287,-0.0279 0,-4.52988 c 0,-0.72339 -2e-5,-1.25622 -4.5e-4,-1.6415 l -0.0935,-0.0908 c -0.1418,-0.15221 -0.41973,-0.15056 -0.58596,0.004 l -0.10371,0.0961 0,1.63208 0,4.53053 -0.17288,0.0279 c -1.05023,0.1696 -1.84809,0.56351 -2.51043,1.23943 l -0.24392,0.24892 -4.31453,-2.93417 z"
       id="path2634"
       style="fill:#000000;fill-rule:nonzero;stroke:none" />
    <path
       d="M -650.875,-628.6875 -1047,-400 -1047,57.40625 -650.875,286.125 -254.75,57.40625 -254.75,-400 -650.875,-628.6875 z m 0,118.65625 293.34375,169.375 0,338.75 L -650.875,167.4375 -944.25,-1.90625 l 0,-338.75 293.375,-169.375 z"
       transform="matrix(0.1408642,0,0,0.1408642,272.90111,140.73573)"
       id="path3080"
       style="fill:#000000;fill-opacity:1;fill-rule:nonzero;stroke:none;filter:url(#filter3096)" />
    <path
       d="m -650.875,-488.80368 -274.98219,158.75037 0,317.52243 274.98219,158.77206 274.98219,-158.77206 0,-317.52243 -274.98219,-158.75037 z m 0,20.93387 256.82504,148.29428 0,296.588558 -256.82504,148.272582 -256.84673,-148.272582 0,-296.588558 256.84673,-148.29428 z"
       transform="matrix(0.1408642,0,0,0.1408642,272.90111,140.73573)"
       id="path3084"
       style="fill:#000000;fill-opacity:1;fill-rule:nonzero;stroke:none;filter:url(#filter3090)" />
    <path
       d="m 121.12336,243.22373 c -1.58167,-0.17707 -3.13672,-1.08306 -4.09722,-2.38706 -0.51807,-0.70335 -0.933,-1.68748 -1.06814,-2.53346 -0.0268,-0.16783 -0.0569,-0.31329 -0.0668,-0.32323 -0.01,-0.01 -0.20695,0.0166 -0.43777,0.059 -0.48008,0.0882 -1.41587,0.10165 -1.85462,0.0266 -1.40267,-0.23994 -2.50207,-0.83446 -3.51768,-1.90226 -1.07033,-1.12534 -1.57332,-2.16863 -1.72814,-3.58445 -0.14409,-1.31772 0.24728,-2.76948 1.04547,-3.87806 0.13984,-0.19423 0.30956,-0.406 0.37716,-0.47063 0.0676,-0.0646 2.0521,-1.43383 4.41002,-3.04269 l 4.28712,-2.92521 0.24392,0.2488 c 0.66272,0.67598 1.46033,1.06973 2.51043,1.23932 l 0.17288,0.0279 0,4.51295 0,1.39153 0.1053,0.12243 c 0.1387,0.16124 0.40505,0.16951 0.56676,0.0176 l 0.1116,-0.10485 0,-1.40911 0,-4.53054 0.17287,-0.0279 c 1.05264,-0.16998 1.85084,-0.56475 2.5128,-1.24276 l 0.24629,-0.25226 4.2617,2.90677 c 2.34394,1.59872 4.32778,2.97005 4.40855,3.0474 0.23263,0.22277 0.64033,0.81541 0.86834,1.26222 0.67965,1.33181 0.80435,2.94447 0.3347,4.32869 -0.30826,0.90856 -0.7285,1.5709 -1.5259,2.405 -0.98254,1.02776 -2.09665,1.62393 -3.47515,1.85958 -0.43228,0.0739 -1.38969,0.0599 -1.8636,-0.0272 -0.22755,-0.0418 -0.42186,-0.0679 -0.43181,-0.0579 -0.01,0.01 -0.04,0.1554 -0.0669,0.32323 -0.18549,1.16118 -0.80904,2.37319 -1.65803,3.22278 -0.83392,0.8345 -2.06388,1.4705 -3.19994,1.65463 -0.44,0.0713 -1.21154,0.0916 -1.64422,0.0431 z M 102.4306,229.69031 c -1.79671,-0.21673 -3.192838,-0.75806 -4.563698,-1.7695 -1.14178,-0.84241 -2.12494,-2.02773 -2.74416,-3.30837 l -0.25222,-0.52162 -0.16134,0.0265 c -0.0887,0.0146 -0.44139,0.0389 -0.78367,0.0541 -0.93463,0.0414 -1.70921,-0.11276 -2.55865,-0.50933 -1.5607,-0.72862 -2.70633,-2.09651 -3.13461,-3.74274 l -0.10938,-0.42046 0.0852,-0.34016 c 0.45778,-1.82776 1.76447,-3.31225 3.50836,-3.98574 0.64582,-0.24942 1.20504,-0.35349 1.9325,-0.35966 0.34228,-0.003 0.75716,0.012 0.92196,0.0331 l 0.29964,0.0383 0.25333,-0.52239 c 0.89817,-1.85213 2.37576,-3.31325 4.25803,-4.21053 1.305338,-0.62225 2.450918,-0.87515 3.947628,-0.87146 1.46599,0.004 2.73522,0.3027 4.0244,0.94833 0.29364,0.14705 2.2303,1.43819 5.53177,3.68794 2.79397,1.90392 5.08817,3.46895 5.09821,3.47784 0.0101,0.009 -0.0347,0.13588 -0.0995,0.2822 -0.17591,0.39742 -0.26509,0.68915 -0.32414,1.06027 l -0.0531,0.33383 -4.52667,0.0122 -4.52666,0.0122 -0.11895,0.11176 c -0.20007,0.18797 -0.15153,0.50896 0.097,0.64133 0.0746,0.0397 1.26483,0.0536 4.58788,0.0536 l 4.4872,0 0.0532,0.33449 c 0.0591,0.37175 0.14827,0.66334 0.32425,1.06093 0.0648,0.14631 0.10953,0.2733 0.0995,0.28219 -0.0101,0.009 -2.30424,1.57393 -5.09821,3.47785 -3.30147,2.24975 -5.23813,3.54088 -5.53177,3.68793 -0.91095,0.45622 -1.94904,0.77534 -2.94828,0.90632 -0.46949,0.0615 -1.60165,0.0837 -1.97503,0.0387 z m 36.69384,-0.0418 c -1.20615,-0.1642 -2.82791,-0.74858 -3.5724,-1.28727 -0.11409,-0.0826 -2.3752,-1.6271 -5.02469,-3.43231 -2.64948,-1.80522 -4.84495,-3.3091 -4.87882,-3.34198 -0.0513,-0.0498 -0.0466,-0.0897 0.0282,-0.23856 0.14587,-0.29036 0.2887,-0.74781 0.34607,-1.10836 l 0.0536,-0.33681 4.5575,-0.0122 4.5575,-0.0122 0.0881,-0.10883 c 0.0948,-0.11707 0.11642,-0.37448 0.043,-0.51168 -0.0248,-0.0464 -0.11089,-0.10724 -0.19126,-0.13526 -0.10281,-0.0358 -1.46718,-0.051 -4.6004,-0.051 l -4.45423,0 -0.0537,-0.33747 c -0.0575,-0.36113 -0.20022,-0.81849 -0.34617,-1.10901 -0.0748,-0.14888 -0.0795,-0.18879 -0.0283,-0.23856 0.0339,-0.0329 2.22935,-1.53677 4.87883,-3.34198 2.64948,-1.80521 4.91059,-3.34975 5.02468,-3.43231 0.28228,-0.20424 1.03359,-0.57453 1.57966,-0.77855 0.89832,-0.33563 2.2294,-0.581 3.15174,-0.581 1.33102,0 2.78486,0.34003 4.00418,0.93651 1.83559,0.89795 3.28894,2.3515 4.17208,4.17263 l 0.25334,0.5224 0.29962,-0.0383 c 0.50228,-0.0643 1.46044,-0.0405 1.89003,0.0471 1.20357,0.24517 2.20023,0.79273 3.038,1.66906 0.71703,0.75002 1.18408,1.59512 1.4348,2.59618 l 0.0852,0.34015 -0.10939,0.42047 c -0.56874,2.1862 -2.38153,3.83311 -4.62607,4.20279 -0.46189,0.0761 -1.36902,0.0736 -1.85085,-0.005 l -0.16133,-0.0263 -0.25223,0.52162 c -1.51191,3.12686 -4.71754,5.12589 -8.18372,5.10338 -0.38031,-0.002 -0.899,-0.0327 -1.15265,-0.0673 z m -18.07023,-6.77179 c -1.22532,-0.26725 -2.26015,-1.2544 -2.61108,-2.49078 -0.14709,-0.51825 -0.14709,-1.27958 0,-1.79783 0.16992,-0.59861 0.43445,-1.04904 0.8824,-1.50249 0.68017,-0.68851 1.36843,-1.00301 2.28662,-1.04487 0.66091,-0.0301 1.08353,0.0584 1.70086,0.35637 1.3207,0.63744 2.12137,2.09927 1.91665,3.49936 -0.26098,1.78481 -1.71366,3.05924 -3.47003,3.04423 -0.23586,-0.002 -0.5533,-0.0308 -0.70542,-0.064 z m -6.89601,-9.0989 c -4.08759,-2.77985 -4.32763,-2.95068 -4.56371,-3.24781 -1.58114,-1.99012 -1.69605,-4.66169 -0.29125,-6.77187 0.38344,-0.57598 1.35866,-1.57665 1.84184,-1.88992 0.7366,-0.47758 1.53431,-0.79829 2.32811,-0.93602 0.6574,-0.11406 1.61114,-0.094 2.28424,0.0481 l 0.14279,0.0301 0.0568,-0.35221 c 0.12738,-0.78961 0.50481,-1.72044 0.97041,-2.39321 0.89453,-1.29258 2.37711,-2.22647 3.93884,-2.4811 0.42555,-0.0694 1.43712,-0.07 1.85098,-9.2e-4 0.82437,0.13721 1.76245,0.51477 2.45085,0.98644 0.45889,0.3144 1.16452,1.02025 1.47948,1.47992 0.48216,0.7037 0.85241,1.61213 0.97805,2.39966 l 0.0577,0.36162 0.1428,-0.0301 c 0.6731,-0.14208 1.62684,-0.16215 2.28424,-0.0481 1.10791,0.19223 2.18145,0.72048 2.98269,1.46768 1.43452,1.33776 2.09991,2.67067 2.16706,4.34104 0.0579,1.44127 -0.43921,2.83281 -1.42234,3.98126 -0.0681,0.0796 -2.05845,1.46142 -4.42292,3.07073 l -4.29903,2.92602 -0.24643,-0.25239 c -0.66209,-0.67815 -1.4602,-1.07289 -2.51292,-1.24289 l -0.17287,-0.0279 0,-4.52988 c 0,-0.72339 -2e-5,-1.25622 -4.5e-4,-1.6415 l -0.0935,-0.0908 c -0.1418,-0.1522 -0.41973,-0.15056 -0.58596,0.004 l -0.10371,0.0961 0,1.63208 0,4.53053 -0.17288,0.0279 c -1.05023,0.1696 -1.84809,0.56351 -2.51043,1.23943 l -0.24392,0.24892 -4.31453,-2.93417 z"
       id="path3024"
       style="fill:#000000;fill-rule:nonzero;stroke:none" />
    <path
       d="M -650.875,-628.6875 -1047,-400 -1047,57.40625 -650.875,286.125 -254.75,57.40625 -254.75,-400 -650.875,-628.6875 z m 0,118.65625 293.34375,169.375 0,338.75 L -650.875,167.4375 -944.25,-1.90625 l 0,-338.75 293.375,-169.375 z"
       transform="matrix(0.1408642,0,0,0.1408642,213.47677,243.61825)"
       id="path3026"
       style="fill:#000000;fill-opacity:1;fill-rule:nonzero;stroke:none;filter:url(#filter3096)" />
    <path
       d="m -650.875,-488.80368 -274.98219,158.75037 0,317.52243 274.98219,158.77206 274.98219,-158.77206 0,-317.52243 -274.98219,-158.75037 z m 0,20.93387 256.82504,148.29428 0,296.588558 -256.82504,148.272582 -256.84673,-148.272582 0,-296.588558 256.84673,-148.29428 z"
       transform="matrix(0.1408642,0,0,0.1408642,213.47677,243.61825)"
       id="path3028"
       style="fill:#000000;fill-opacity:1;fill-rule:nonzero;stroke:none;filter:url(#filter3090)" />
    <path
       d="m 239.89787,243.18091 c -1.58167,-0.17707 -3.13672,-1.08306 -4.09722,-2.38706 -0.51807,-0.70335 -0.933,-1.68748 -1.06814,-2.53346 -0.0268,-0.16783 -0.0569,-0.31329 -0.0668,-0.32323 -0.01,-0.01 -0.20695,0.0166 -0.43777,0.059 -0.48008,0.0882 -1.41587,0.10165 -1.85462,0.0266 -1.40267,-0.23994 -2.50207,-0.83446 -3.51768,-1.90226 -1.07033,-1.12534 -1.57332,-2.16863 -1.72814,-3.58445 -0.14409,-1.31772 0.24728,-2.76948 1.04547,-3.87806 0.13984,-0.19423 0.30956,-0.406 0.37716,-0.47063 0.0676,-0.0646 2.0521,-1.43383 4.41002,-3.04269 l 4.28712,-2.92521 0.24392,0.2488 c 0.66272,0.67598 1.46033,1.06973 2.51043,1.23932 l 0.17288,0.0279 0,4.51295 0,1.39153 0.1053,0.12243 c 0.1387,0.16124 0.40505,0.16951 0.56676,0.0176 l 0.1116,-0.10485 0,-1.40911 0,-4.53054 0.17287,-0.0279 c 1.05264,-0.16998 1.85084,-0.56475 2.5128,-1.24276 l 0.24629,-0.25226 4.2617,2.90677 c 2.34394,1.59872 4.32778,2.97005 4.40855,3.0474 0.23263,0.22277 0.64033,0.81541 0.86834,1.26222 0.67965,1.33181 0.80435,2.94447 0.3347,4.32869 -0.30826,0.90856 -0.7285,1.5709 -1.5259,2.405 -0.98254,1.02776 -2.09665,1.62393 -3.47515,1.85958 -0.43228,0.0739 -1.38969,0.06 -1.8636,-0.0272 -0.22755,-0.0418 -0.42186,-0.0679 -0.43181,-0.0579 -0.01,0.01 -0.04,0.1554 -0.0669,0.32323 -0.18549,1.16118 -0.80904,2.37319 -1.65803,3.22278 -0.83392,0.8345 -2.06388,1.4705 -3.19994,1.65463 -0.44,0.0713 -1.21154,0.0915 -1.64422,0.0431 z m -18.69276,-13.53342 c -1.79671,-0.21673 -3.19284,-0.75806 -4.5637,-1.7695 -1.14178,-0.84241 -2.12494,-2.02773 -2.74416,-3.30837 l -0.25222,-0.52162 -0.16134,0.0265 c -0.0887,0.0146 -0.44139,0.0389 -0.78367,0.0541 -0.93463,0.0414 -1.70921,-0.11276 -2.55865,-0.50933 -1.5607,-0.72862 -2.70633,-2.09651 -3.13461,-3.74274 l -0.10938,-0.42046 0.0852,-0.34016 c 0.45778,-1.82776 1.76447,-3.31225 3.50836,-3.98574 0.64582,-0.24942 1.20504,-0.35349 1.9325,-0.35966 0.34228,-0.003 0.75716,0.012 0.92196,0.0331 l 0.29964,0.0383 0.25333,-0.52239 c 0.89817,-1.85213 2.37576,-3.31325 4.25803,-4.21053 1.30534,-0.62225 2.45092,-0.87515 3.94763,-0.87146 1.46599,0.004 2.73522,0.3027 4.0244,0.94833 0.29364,0.14705 2.2303,1.43819 5.53177,3.68794 2.79397,1.90392 5.08817,3.46895 5.09821,3.47784 0.0101,0.009 -0.0347,0.13588 -0.0995,0.2822 -0.17591,0.39742 -0.26509,0.68915 -0.32414,1.06027 l -0.0531,0.33383 -4.52667,0.0122 -4.52666,0.0122 -0.11895,0.11176 c -0.20007,0.18797 -0.15153,0.50896 0.097,0.64133 0.0746,0.0397 1.26483,0.0536 4.58788,0.0536 l 4.4872,0 0.0532,0.33449 c 0.0592,0.37175 0.14827,0.66334 0.32425,1.06093 0.0648,0.14631 0.10953,0.2733 0.0995,0.28219 -0.0101,0.009 -2.30424,1.57393 -5.09821,3.47785 -3.30147,2.24975 -5.23813,3.54088 -5.53177,3.68793 -0.91095,0.45622 -1.94904,0.77534 -2.94828,0.90632 -0.46949,0.0615 -1.60165,0.0837 -1.97503,0.0387 z m 36.69384,-0.0418 c -1.20615,-0.1642 -2.82791,-0.74858 -3.5724,-1.28727 -0.11409,-0.0826 -2.3752,-1.6271 -5.02469,-3.43231 -2.64948,-1.80522 -4.84495,-3.3091 -4.87882,-3.34198 -0.0513,-0.0498 -0.0466,-0.0897 0.0282,-0.23856 0.14587,-0.29036 0.2887,-0.74781 0.34607,-1.10836 l 0.0536,-0.33681 4.5575,-0.0122 4.5575,-0.0122 0.0881,-0.10883 c 0.0948,-0.11707 0.11642,-0.37448 0.043,-0.51168 -0.0248,-0.0464 -0.11089,-0.10724 -0.19126,-0.13526 -0.10281,-0.0358 -1.46718,-0.051 -4.6004,-0.051 l -4.45423,0 -0.0537,-0.33747 c -0.0575,-0.36113 -0.20022,-0.81849 -0.34617,-1.10901 -0.0748,-0.14888 -0.0795,-0.18879 -0.0282,-0.23856 0.0339,-0.0329 2.22935,-1.53677 4.87883,-3.34198 2.64948,-1.80521 4.91059,-3.34975 5.02468,-3.43231 0.28228,-0.20424 1.03359,-0.57453 1.57966,-0.77855 0.89832,-0.33563 2.2294,-0.581 3.15175,-0.581 1.33101,0 2.78486,0.34003 4.00417,0.93651 1.83559,0.89795 3.28894,2.3515 4.17208,4.17263 l 0.25334,0.5224 0.29963,-0.0384 c 0.50227,-0.0643 1.46044,-0.0404 1.89002,0.0471 1.20358,0.24517 2.20023,0.79273 3.038,1.66906 0.71703,0.75002 1.18408,1.59512 1.4348,2.59618 l 0.0852,0.34015 -0.10939,0.42047 c -0.56874,2.1862 -2.38153,3.83311 -4.62607,4.20279 -0.46189,0.0761 -1.36902,0.0736 -1.85085,-0.005 l -0.16133,-0.0263 -0.25223,0.52162 c -1.51191,3.12686 -4.71754,5.12589 -8.18372,5.10338 -0.38031,-0.002 -0.899,-0.0327 -1.15265,-0.0673 z m -18.07023,-6.77179 c -1.22532,-0.26725 -2.26015,-1.2544 -2.61108,-2.49078 -0.14709,-0.51825 -0.14709,-1.27958 0,-1.79783 0.16992,-0.59861 0.43445,-1.04904 0.8824,-1.50249 0.68017,-0.68851 1.36843,-1.00301 2.28662,-1.04487 0.66091,-0.0301 1.08353,0.0584 1.70086,0.35637 1.3207,0.63744 2.12137,2.09927 1.91665,3.49936 -0.26098,1.78481 -1.71366,3.05924 -3.47003,3.04423 -0.23586,-0.002 -0.5533,-0.0308 -0.70542,-0.064 z m -6.89601,-9.0989 c -4.08759,-2.77985 -4.32763,-2.95068 -4.56371,-3.24781 -1.58114,-1.99012 -1.69605,-4.66169 -0.29125,-6.77187 0.38344,-0.57598 1.35866,-1.57665 1.84184,-1.88992 0.7366,-0.47758 1.53431,-0.79829 2.32811,-0.93602 0.6574,-0.11406 1.61114,-0.094 2.28424,0.0481 l 0.14279,0.0301 0.0568,-0.35221 c 0.12738,-0.78961 0.50481,-1.72044 0.97041,-2.39321 0.89453,-1.29258 2.37711,-2.22647 3.93884,-2.4811 0.42555,-0.0694 1.43712,-0.07 1.85098,-9.2e-4 0.82437,0.13721 1.76245,0.51477 2.45085,0.98644 0.45889,0.3144 1.16452,1.02025 1.47948,1.47992 0.48216,0.7037 0.85241,1.61213 0.97805,2.39966 l 0.0577,0.36162 0.1428,-0.0301 c 0.6731,-0.14208 1.62684,-0.16215 2.28424,-0.0481 1.10791,0.19223 2.18145,0.72048 2.98269,1.46768 1.43452,1.33776 2.09991,2.67067 2.16706,4.34104 0.0579,1.44127 -0.43921,2.83281 -1.42234,3.98126 -0.0681,0.0796 -2.05845,1.46142 -4.42292,3.07073 l -4.29903,2.92602 -0.24643,-0.25239 c -0.66209,-0.67815 -1.4602,-1.07289 -2.51292,-1.24289 l -0.17287,-0.0279 0,-4.52988 c 0,-0.72339 -2e-5,-1.25622 -4.5e-4,-1.6415 l -0.0935,-0.0908 c -0.1418,-0.1522 -0.41973,-0.15056 -0.58596,0.004 l -0.10371,0.0961 0,1.63208 0,4.53053 -0.17288,0.0279 c -1.05023,0.1696 -1.84809,0.56351 -2.51043,1.23943 l -0.24392,0.24892 -4.31453,-2.93417 z"
       id="path3032"
       style="fill:#000000;fill-rule:nonzero;stroke:none" />
    <path
       d="M -650.875,-628.6875 -1047,-400 -1047,57.40625 -650.875,286.125 -254.75,57.40625 -254.75,-400 -650.875,-628.6875 z m 0,118.65625 293.34375,169.375 0,338.75 L -650.875,167.4375 -944.25,-1.90625 l 0,-338.75 293.375,-169.375 z"
       transform="matrix(0.1408642,0,0,0.1408642,332.25128,243.57543)"
       id="path3034"
       style="fill:#000000;fill-opacity:1;fill-rule:nonzero;stroke:none;filter:url(#filter3096)" />
    <path
       d="m -650.875,-488.80368 -274.98219,158.75037 0,317.52243 274.98219,158.77206 274.98219,-158.77206 0,-317.52243 -274.98219,-158.75037 z m 0,20.93387 256.82504,148.29428 0,296.588558 -256.82504,148.272582 -256.84673,-148.272582 0,-296.588558 256.84673,-148.29428 z"
       transform="matrix(0.1408642,0,0,0.1408642,332.25128,243.57543)"
       id="path3036"
       style="fill:#000000;fill-opacity:1;fill-rule:nonzero;stroke:none;filter:url(#filter3090)" />
  </g>
</svg>
