<svg width="20" height="100%" viewBox="0 0 80 69" fill="none" xmlns="http://www.w3.org/2000/svg">
    <title id="action-icon">Action</title>
    <path fill-rule="evenodd" clip-rule="evenodd"
          d="M10.9271 55.6824C16.8591 52.4517 22.7031 49.1397 28.2658 45.5597C34.5618 42.1717 40.8364 38.7704 46.5764 34.8331C34.6298 27.6331 22.1751 20.9317 9.95376 13.9984C13.5471 25.7811 14.1778 43.1317 10.9271 55.6824ZM61.1844 34.0584C56.7204 37.3851 51.5284 39.9224 46.5764 42.8224C34.4578 49.9291 22.8058 56.6984 9.95376 64.0504C7.82043 65.2717 0.955098 71.8757 1.18843 65.4144C1.24443 63.9197 2.17643 62.4464 2.5551 60.9437C5.49643 49.3384 5.88043 33.4411 3.9191 20.6237C4.02843 20.1851 3.54843 20.3424 3.53376 20.0344C3.0751 14.8491 1.8751 10.3984 0.407098 6.20774C0.435098 3.67708 -0.936903 0.611741 2.36843 0.755741C3.43243 0.803741 5.9351 2.72374 7.62176 3.67707C12.8071 6.61841 17.9511 9.67841 22.8124 12.4411C29.4658 16.2131 37.3324 20.2811 43.4631 23.9304C44.5058 24.5597 45.5671 25.2664 46.7684 25.8771C47.9751 26.4877 49.3338 27.0157 50.2738 27.6331C50.5004 27.7837 50.2871 28.2637 50.4711 28.4144C50.7324 28.6344 52.6791 29.4851 53.1951 29.7717C55.6164 31.1371 58.9218 32.8784 61.1844 34.0584"
          fill="#000000"/>
    <path fill-rule="evenodd" clip-rule="evenodd"
          d="M42.0912 57.2397C42.7912 56.1771 43.7725 55.4091 44.6285 54.5104C49.4712 56.5891 55.9032 56.8077 60.9925 55.0931C66.0259 52.5424 70.8832 49.7984 72.8645 44.1891C74.4205 42.4464 75.4552 39.2651 75.7925 36.2064C76.3472 31.0757 74.3512 26.7677 73.2552 23.3531C70.9379 20.2117 68.2339 17.4691 65.2725 14.9731C59.2712 12.4491 54.8072 10.8024 47.1672 12.2437C45.6365 13.3197 43.3672 13.6424 41.8992 14.7797C40.5552 14.5611 40.2939 13.2651 39.3685 12.6264C41.0499 11.3917 42.7352 10.1571 45.4112 9.91174C45.5552 9.60907 46.0285 9.6224 45.9872 9.12907C50.6512 8.31307 54.9512 7.8944 59.0379 8.74507C66.4032 10.2677 71.6365 15.1517 75.4005 20.0344C76.1219 22.6264 78.0419 24.8477 78.5219 27.6331C78.6592 28.4691 78.3779 29.4571 78.5219 30.3624C78.6125 30.9517 79.0432 31.5144 79.0992 32.1184C79.9485 40.1144 75.5459 47.1091 71.8965 51.7877C70.3205 52.6784 69.0165 53.8451 68.0019 55.2851C64.1619 57.4317 59.8419 59.0851 54.7512 59.9624C50.8632 59.4691 45.2059 59.4691 42.0912 57.2397Z"
          fill="#000000"/>
    <path fill-rule="evenodd" clip-rule="evenodd"
          d="M46.9674 49.4416C47.1661 48.0163 48.2021 47.4389 48.5247 46.1363C50.9661 47.0963 55.4381 47.2336 58.0701 46.3283C62.9954 43.9269 67.9741 38.771 66.2461 30.939C65.8887 29.327 64.9847 27.6269 64.1061 26.4669C63.4141 25.5403 62.1167 25.0403 61.7741 23.7376C58.5381 22.4749 56.3847 20.3363 51.0487 21.0083C49.6981 21.1869 47.9274 22.5296 46.9674 22.3723C45.9247 22.2149 45.1367 20.4869 45.0194 19.6496C46.4594 19.0749 47.9901 18.5936 49.3061 17.8949C53.3527 17.3389 56.5354 17.4696 59.6274 18.6763C64.9967 20.7883 69.0567 25.8363 69.7581 31.9136C70.2781 36.563 69.0367 40.3056 66.6367 43.4136C65.3274 45.0936 63.8047 46.4163 62.3501 47.5016C59.0247 49.9763 52.0154 51.7043 46.9674 49.4416Z"
          fill="#000000"/>
</svg>
