<svg width="20" height="100%" viewBox="0 0 69 82" fill="none" xmlns="http://www.w3.org/2000/svg">
    <title id="attack-icon">Attack</title>
    <path fill-rule="evenodd" clip-rule="evenodd"
          d="M2.86454 1.56135C13.4539 13.508 23.7005 25.8053 34.3099 37.7387C32.7939 39.788 31.0112 41.5573 29.4272 43.54C24.2219 38.3627 19.1539 33.0533 14.0165 27.8133C8.24187 22.4573 -0.330131 13.1787 2.86454 1.56135Z"
          fill="#000000"/>
    <path fill-rule="evenodd" clip-rule="evenodd"
          d="M15.5391 60.0198C13.2684 62.8384 9.79906 66.8158 6.99372 70.0944C5.58039 71.7358 2.85106 74.2931 6.07372 74.9771C10.1897 70.8424 14.3591 66.7744 18.1311 62.3118C16.9924 61.8171 16.6084 60.5758 15.5391 60.0198ZM24.3857 66.1238C20.2311 62.0918 15.9364 58.1891 12.1777 53.7584C15.6151 58.5118 19.9417 62.3798 24.3857 66.1238ZM65.9057 0.799759C66.0284 0.771759 66.0431 0.861096 66.0564 0.950429C68.0591 10.7304 62.7431 17.9864 57.8124 23.0758C47.2577 34.0144 37.5884 44.0744 26.6777 54.9864C25.3191 56.3371 23.6177 57.9771 21.9444 59.7118C21.6017 60.0678 20.4217 61.3024 20.4217 61.2411C20.3951 61.8918 22.3564 62.9478 23.0137 63.5318C24.0431 64.4224 25.0444 65.3291 25.3044 65.9664C24.0577 67.1264 23.1377 65.7878 22.2457 65.0531C21.2524 64.2384 20.2311 63.3318 19.5031 62.6118C15.0857 67.0011 11.0804 71.7958 6.37639 75.8891C6.78839 79.8184 0.677723 80.8291 0.27239 77.2691C0.0537232 75.3758 1.34306 73.9224 3.18039 73.4491C6.98039 68.2558 11.3697 63.6491 15.3817 58.6424C14.5377 56.7344 12.1577 55.5691 11.8697 53.6078C14.2897 52.9771 15.2364 56.3651 16.6084 57.5718C33.3297 38.9371 49.4591 19.7211 65.9057 0.799759Z"
          fill="#000000"/>
    <path fill-rule="evenodd" clip-rule="evenodd"
          d="M62.0788 71.618C59.4041 68.394 55.3295 63.594 53.2321 61.5434C52.6281 62.4687 51.8668 63.2287 50.9415 63.834C54.8775 68.2434 58.7735 72.6887 63.3055 76.5007C66.0841 75.402 63.4361 73.23 62.0788 71.618ZM44.6868 67.646C49.1308 63.894 53.4508 60.034 56.8935 55.2874C53.1628 59.746 48.8561 63.6207 44.6868 67.646V67.646ZM52.3121 58.7994C53.8628 57.8594 54.5068 55.9954 55.9815 54.986C56.1535 55.37 57.1615 54.9247 57.3601 55.2874C56.4415 57.174 54.8081 58.334 53.6908 60.0194C57.4908 65.2247 62.1948 69.5327 65.7468 74.978C68.1415 75.418 69.3895 77.646 68.6481 79.558C67.5655 82.3367 62.4828 80.8287 62.6961 77.5714C59.3081 74.394 54.9468 69.758 51.2428 65.8207C50.9415 65.4847 49.8015 64.1487 49.7201 64.142C49.2121 64.0874 47.5868 65.858 47.2788 66.1234C46.3468 66.9247 45.8455 67.542 44.9881 68.1047C44.6108 67.8314 43.9868 67.79 43.7668 67.3447C45.1455 65.8207 46.8268 64.594 48.3495 63.2234C45.0975 59.5327 40.4201 54.9247 36.4428 50.8647C36.0455 50.4527 34.7695 49.2114 34.7695 49.1834C34.7428 48.6154 36.6215 47.3407 37.0535 46.894C38.1988 45.7207 38.7815 45.0207 39.5015 44.1434C44.0348 48.766 48.0881 53.8687 52.3121 58.7994"
          fill="#000000"/>
</svg>
