<svg width="20" height="100%" viewBox="0 0 75 82" fill="none" xmlns="http://www.w3.org/2000/svg">
    <title id="defence-icon">Defence</title>
    <path fill-rule="evenodd" clip-rule="evenodd"
          d="M28.3593 0.82438C28.538 0.865713 28.47 1.15371 28.6887 1.15371C27.646 2.77238 26.1927 3.97238 24.8687 5.29638C24.602 5.80305 23.998 6.42038 23.5447 5.80305C24.1633 4.15771 25.0673 2.79371 25.698 1.15371C26.5073 0.961713 28.0927 1.55905 28.3593 0.82438Z"
          fill="#000000"/>
    <path fill-rule="evenodd" clip-rule="evenodd"
          d="M13.093 1.65386C16.405 1.62053 20.4184 1.68853 23.209 1.65386C22.2904 4.49386 20.981 6.94186 20.061 9.78186C17.2624 7.76453 15.741 4.47919 13.093 2.31919V1.65386Z"
          fill="#000000"/>
    <path fill-rule="evenodd" clip-rule="evenodd"
          d="M38.1458 9.38295C38.2485 31.735 37.9338 55.5123 38.3045 76.9363C59.0578 64.215 69.1658 40.855 70.6738 8.88962H38.3045C38.1178 8.91629 38.1325 9.15762 38.1458 9.38295ZM0.309814 5.73495C4.61648 5.35095 9.65782 5.68695 14.2458 5.57095C16.3778 8.69762 18.8191 11.5096 20.8845 14.7056C23.5858 12.0923 25.1978 8.38962 27.6871 5.57095H74.3232C72.9458 41.535 61.4991 67.431 38.1458 81.407C13.3405 68.555 2.34048 41.8776 0.473816 6.07095C0.501816 5.87229 0.432481 5.77629 0.309814 5.73495"
          fill="#000000"/>
</svg>
