<svg width="20" height="100%" viewBox="0 0 80 79" fill="none" xmlns="http://www.w3.org/2000/svg">
    <title id="morale-icon">Morale</title>
    <path fill-rule="evenodd" clip-rule="evenodd"
          d="M15.3139 39.5315V72.5061C23.5232 67.7661 32.3765 62.3688 40.4552 56.9928C40.3592 51.0728 40.6619 44.7435 40.3112 39.0715H15.4645C15.2859 39.0995 15.2992 39.3115 15.3139 39.5315ZM54.3165 10.3075H55.2219C55.4539 10.0888 55.3512 9.53279 55.3645 9.10879H54.1725C54.1859 9.53279 54.0899 10.0888 54.3165 10.3075ZM40.0099 10.1648H41.0659V9.10879H40.0099V10.1648ZM25.4019 10.1648C25.9165 10.1155 26.6165 10.2741 26.9032 10.0061V9.10879H25.4019V10.1648ZM44.0765 13.1688H40.4552V39.0715H65.6125V4.12879H58.3832C58.2859 7.14612 58.5752 10.5488 58.2312 13.3195C55.9139 13.2235 53.2259 13.5168 51.1539 13.1688V3.97812H44.2285C43.8712 6.74878 44.1739 10.1648 44.0765 13.1688V13.1688ZM54.1725 0.974119C54.2685 2.37279 53.9659 4.18345 54.3165 5.34212H55.0645C55.7565 4.51945 55.1792 2.43545 55.3645 1.12478H68.6219V5.18479C69.1845 5.54212 70.3779 5.23945 71.1792 5.34212C71.5512 2.71012 73.9445 1.81146 74.5005 5.04079C75.2685 4.46479 75.6592 4.11412 76.7632 4.12879C82.3325 4.20479 78.9845 13.2781 74.5005 9.39545C74.1432 11.8928 71.4539 11.6168 71.3312 9.10879H68.6219V78.2328C59.2139 72.5315 50.0699 66.5595 40.7645 60.7568C31.1285 66.3328 21.8565 72.2715 12.4472 78.0741C12.0965 55.4421 12.3979 32.1515 12.2952 9.25145C11.3912 8.90212 9.84188 9.20345 8.68188 9.10879C8.46855 11.1515 5.60188 12.1461 5.52055 9.25145C4.51121 9.76612 4.09388 10.3155 2.65388 10.1648C-2.29812 9.60212 1.02855 1.20745 5.21921 4.88345C5.57521 2.30478 8.67521 2.27812 8.53788 5.34212H12.2952V1.12478H25.4019V5.34212H26.7605C27.1099 4.23145 26.8072 2.47545 26.9032 1.12478H40.0099C40.2779 2.41412 39.4539 4.78612 40.4552 5.34212C41.7525 5.12345 40.7432 2.60746 41.0659 1.42746V0.974119H54.1725Z"
          fill="#000000"/>
</svg>
