<svg width="20" height="100%" viewBox="0 0 79 62" fill="none" xmlns="http://www.w3.org/2000/svg">
    <title id="movement-icon">Movement</title>
    <path fill-rule="evenodd" clip-rule="evenodd"
          d="M11.1197 42.1603C10.8597 44.8896 10.0504 47.4616 9.73439 49.9363C20.0557 44.4776 30.6664 37.8176 41.1664 31.9683C40.5477 30.5083 38.7517 30.2336 37.5371 29.5549C28.1971 24.2589 18.1437 18.2509 8.87039 13.1416C11.0237 21.0496 12.0531 32.2016 11.1197 42.1603ZM78.8237 29.7189C78.4677 30.7683 77.1851 31.0016 76.4104 31.4469C60.2037 40.8016 43.4424 50.6563 27.1824 60.3003C26.4957 60.0603 26.2491 59.3803 25.7971 58.9136C26.0571 54.2229 27.9784 51.1909 28.2171 46.4803C20.7357 50.8149 13.0197 54.6149 5.59173 59.7789C3.71973 61.0736 0.599726 63.1803 0.927726 58.5723C0.997059 57.5216 1.53306 56.0683 1.79306 55.1149C4.37173 45.3136 5.35973 32.2363 3.34239 20.3923C2.62906 16.2363 2.39706 12.7936 1.27173 8.82161C1.01039 7.93094 0.394393 7.08694 0.229059 6.22961C-0.113607 4.37094 -0.37494 1.44961 1.79306 1.39494C2.60239 1.38028 4.45439 2.68428 5.23573 3.12294C13.1224 7.55361 19.7344 11.6403 27.8677 15.9069C27.2917 10.6669 24.6171 5.88027 25.1037 0.701608C27.1824 -0.690392 29.5277 1.65494 31.8384 2.95227C35.5211 5.00961 38.3877 6.48961 41.8584 8.47894C48.3797 12.2029 54.8144 16.0723 61.5557 19.8776C67.1304 23.0243 73.1731 26.4003 78.8237 29.7189"
          fill="#000000"/>
</svg>
